<svg version="1.1" id="Layer_1" xmlns="http://www.w3.org/2000/svg" xmlns:xlink="http://www.w3.org/1999/xlink" x="0px" y="0px"
	 width="100%" viewBox="0 0 1024 1024" enable-background="new 0 0 1024 1024" xml:space="preserve">
<path fill="currentColor" opacity="1.000000" stroke="none" 
	d="
M276.099731,521.368408 
	C274.116486,521.344788 272.593597,521.484192 271.121704,521.271057 
	C264.915131,520.372314 259.527313,518.093201 256.753632,511.927948 
	C254.053055,505.925232 257.028198,501.210541 260.624756,496.898926 
	C269.809540,485.888092 280.108459,475.897949 289.854218,465.399780 
	C303.205872,451.017212 316.435791,436.521759 329.750153,422.104492 
	C345.793213,404.732513 361.896057,387.415710 377.926575,370.032196 
	C405.978546,339.612701 433.972473,309.139679 462.036133,278.730988 
	C476.385468,263.182587 490.882080,247.769943 505.191010,232.184708 
	C507.736450,229.412231 509.392487,229.384109 511.949554,232.189850 
	C521.936768,243.148315 531.580505,254.507523 542.399841,264.593628 
	C551.902283,273.452087 560.062439,283.495422 569.379822,292.461548 
	C570.312866,293.359406 571.192688,294.479218 573.124512,294.030273 
	C574.374573,291.532440 572.751648,288.306244 573.918884,285.987213 
	C578.047241,277.784790 574.952332,269.271027 575.519287,260.945740 
	C576.060059,253.004486 578.851562,249.703659 586.796326,249.660965 
	C597.292603,249.604553 607.789673,249.716736 618.286438,249.732956 
	C622.487488,249.739456 625.573120,251.598633 627.523254,255.273804 
	C628.823303,257.723724 630.308105,259.738708 633.402344,260.065765 
	C635.405212,260.277435 636.589844,262.167877 635.995667,263.675476 
	C634.619385,267.167053 636.829285,270.868683 635.161255,274.088470 
	C633.290039,277.700409 629.503845,278.971252 625.862000,280.404541 
	C633.372070,283.025269 635.042664,285.281219 635.062683,293.348785 
	C635.114502,314.178040 635.339661,335.012390 634.936340,355.833893 
	C634.816101,362.043884 636.241699,366.872955 641.144287,370.528381 
	C644.037354,372.685486 646.015442,375.525024 647.782104,378.552246 
	C648.818237,380.327576 650.047058,381.779205 651.944214,382.698273 
	C654.711060,384.038666 656.578613,386.181793 658.197327,388.882507 
	C661.824402,394.934265 666.963257,399.843658 672.165894,404.465912 
	C685.514343,416.325348 696.240051,430.593719 708.611023,443.351349 
	C724.948853,460.199768 740.641846,477.673431 756.614380,494.876190 
	C757.521301,495.852997 758.497437,496.769440 759.358582,497.784241 
	C762.757507,501.789490 766.183228,505.965637 764.068237,511.661743 
	C761.860474,517.607849 756.740051,520.510010 750.883362,520.972290 
	C742.933716,521.599731 734.903809,521.212769 726.908325,521.257446 
	C724.863220,521.268860 723.548645,519.983398 722.295654,518.614136 
	C703.748108,498.345367 685.262451,478.019501 666.630676,457.828461 
	C658.392151,448.900482 649.886414,440.217743 641.430420,431.493042 
	C640.114746,430.135651 638.832886,428.348755 636.226440,428.817902 
	C634.557556,432.054749 638.599854,434.042145 638.105591,436.959381 
	C635.569275,436.417358 600.897888,399.251709 595.268127,391.019562 
	C596.279968,389.049377 598.502014,391.402344 600.136902,389.039825 
	C599.618896,385.461578 596.322693,383.727356 593.520264,381.766907 
	C591.082825,382.442017 593.697571,384.900543 591.285156,385.616058 
	C584.868713,381.848053 580.783569,375.381836 575.727844,370.259491 
	C576.127686,367.593994 578.667114,368.559570 579.863831,366.914703 
	C577.333618,363.418823 575.159302,359.591064 570.646118,357.820892 
	C567.907410,356.746765 567.093506,353.633636 565.524963,351.510345 
	C550.334778,330.947845 531.335144,313.819366 514.689270,294.583405 
	C509.210144,288.251770 508.954102,288.378174 503.426697,294.387726 
	C473.428040,327.003296 443.456848,359.644073 413.484741,392.284027 
	C412.861084,392.963196 412.339661,393.736176 411.135071,395.279633 
	C428.374573,387.482849 437.584473,372.458496 449.337860,360.371185 
	C464.859680,344.408386 479.398254,327.491058 494.437134,311.055054 
	C496.160828,309.171234 497.820068,306.872406 501.136200,306.728821 
	C501.901245,311.043396 498.210083,313.093567 496.186035,315.204010 
	C484.433838,327.457611 473.426392,340.374664 462.071808,352.973602 
	C447.550171,369.086731 431.213898,383.440491 417.106812,399.933136 
	C414.842621,402.580200 412.850830,405.222595 411.963470,408.869537 
	C411.050537,412.621552 408.005463,415.929138 404.743378,417.411682 
	C399.493561,419.797729 395.619507,423.414642 392.096954,427.614136 
	C388.076050,432.407745 383.783234,437.212677 379.462738,441.436340 
	C372.841003,447.909698 366.092010,454.314728 360.092102,461.336975 
	C355.129547,467.145111 348.216156,471.334808 344.508240,477.828461 
	C340.852325,484.231110 333.985138,486.394257 329.803192,491.747192 
	C329.301636,492.389191 328.069214,492.460236 326.107880,493.197021 
	C328.382355,489.579224 328.281677,486.091309 332.346802,484.470215 
	C334.777191,483.500946 337.118286,480.822845 336.460876,477.156250 
	C333.995361,476.836639 333.242218,478.833862 332.121826,480.052124 
	C320.282990,492.925415 308.481415,505.833313 296.738190,518.793823 
	C295.014465,520.696289 293.088501,521.434998 290.580933,521.379150 
	C285.917358,521.275208 281.249542,521.361938 276.099731,521.368408 
M369.634247,441.180389 
	C372.043457,442.684906 373.874481,442.518158 375.043976,439.570892 
	C375.456543,438.531097 376.232391,437.530609 377.081879,436.785095 
	C387.466095,427.671783 395.358398,416.264801 405.029999,406.499878 
	C406.550842,404.964386 407.088470,403.223877 406.183563,401.129120 
	C404.626709,401.323090 403.940277,402.580475 403.080261,403.495453 
	C394.784729,412.321289 386.444000,421.108032 378.323303,430.093140 
	C375.122253,433.634949 371.083588,436.495178 368.403931,441.306671 
	C360.874817,448.273254 354.366608,456.117126 347.052063,464.690643 
	C350.656281,464.381256 352.298706,463.029022 353.372589,461.480865 
	C356.442352,457.055206 360.504456,453.767761 364.606689,450.409637 
	C367.438507,448.091553 369.774719,445.180267 369.634247,441.180389 
z"/>
<path fill="currentColor" opacity="1.000000" stroke="none" 
	d="
M178.205139,684.329468 
	C191.594727,646.278503 204.769348,608.568237 218.088074,570.908936 
	C224.475891,552.847107 236.077835,544.889038 255.594971,544.806274 
	C275.198853,544.723083 271.375519,543.858582 276.650940,559.598633 
	C292.464691,606.781189 308.092072,654.026245 323.768219,701.254822 
	C326.386688,709.143677 325.514771,710.300415 317.206390,710.313782 
	C308.709839,710.327454 300.209473,710.163452 291.718170,710.374390 
	C287.178558,710.487061 284.688782,708.900330 283.498383,704.321594 
	C281.783997,697.727234 279.348846,691.323669 277.400482,684.785339 
	C276.294952,681.075317 274.191162,679.345032 270.192871,679.373840 
	C254.699966,679.485657 239.205002,679.484924 223.712524,679.341003 
	C220.226288,679.308655 218.592056,680.815063 217.659302,683.941833 
	C215.613937,690.798279 213.250931,697.562317 211.307541,704.445984 
	C210.143478,708.569214 208.050064,710.530701 203.526108,710.394897 
	C194.704254,710.130188 185.868561,710.362671 177.039200,710.301086 
	C170.780304,710.257446 169.662674,708.611572 171.733902,702.587280 
	C173.790588,696.605225 175.940399,690.655151 178.205139,684.329468 
M244.851410,603.337952 
	C239.014999,620.210693 233.178604,637.083435 227.039917,654.830139 
	C240.104019,654.830139 251.889191,654.887024 263.673279,654.798035 
	C267.583771,654.768494 266.664948,652.232910 265.884979,649.882080 
	C261.485016,636.620667 257.160034,623.333923 252.675339,610.101318 
	C251.211731,605.782837 250.302902,601.217834 247.876434,597.079895 
	C245.898453,598.703369 245.855133,600.834351 244.851410,603.337952 
z"/>
<path fill="currentColor" opacity="1.000000" stroke="none" 
	d="
M580.850830,593.242737 
	C599.313843,622.312378 596.707947,663.798889 574.890259,689.343689 
	C563.150452,703.088989 547.687134,709.499451 530.000732,710.150085 
	C514.194214,710.731628 498.349945,710.331909 482.522644,710.278870 
	C476.914276,710.260071 475.698547,709.049194 475.694092,703.506470 
	C475.658813,659.688965 475.707977,615.871460 475.612732,572.054138 
	C475.602356,567.281311 477.569489,565.529236 482.196869,565.570007 
	C498.689758,565.715393 515.225281,564.953552 531.667725,565.888306 
	C552.014038,567.045044 568.650208,576.080811 580.850830,593.242737 
M556.047607,628.369934 
	C553.246643,606.895020 540.025818,595.227356 518.401611,595.146301 
	C512.222046,595.123108 512.010376,595.301392 511.999451,601.623718 
	C511.969421,619.101379 511.969025,636.579041 511.962402,654.056702 
	C511.959503,661.713501 511.930969,669.370605 512.001648,677.026794 
	C512.019470,678.953369 511.749420,681.364685 514.646667,681.568542 
	C529.549255,682.617249 546.782532,678.524414 553.750061,659.782532 
	C557.448059,649.835205 557.130737,639.559448 556.047607,628.369934 
z"/>
<path fill="currentColor" opacity="1.000000" stroke="none" 
	d="
M378.639099,711.625732 
	C356.307281,707.419006 339.723907,689.364136 335.688843,665.306702 
	C334.970154,661.021851 334.612427,656.745728 334.617920,652.399536 
	C334.651093,626.078430 334.599884,599.757080 334.595490,573.435852 
	C334.594269,565.952393 334.939178,565.631714 342.598785,565.620361 
	C349.595520,565.609985 356.592499,565.602417 363.589081,565.642395 
	C369.718597,565.677368 370.393585,566.354431 370.397156,572.648987 
	C370.410645,596.471313 370.404968,620.293701 370.376465,644.116028 
	C370.367462,651.634277 370.778320,659.100159 373.183990,666.293518 
	C376.505524,676.225586 385.945007,681.780334 397.331329,680.617249 
	C408.084259,679.518799 414.792755,672.833740 415.605774,661.625671 
	C416.159149,653.997253 416.056854,646.314392 416.075378,638.655396 
	C416.127411,617.165405 416.077209,595.675232 416.094910,574.185120 
	C416.101257,566.464172 416.906830,565.684082 424.694000,565.651062 
	C431.690643,565.621399 438.691071,565.766907 445.682953,565.579346 
	C450.285767,565.455872 452.372711,567.176880 452.354034,571.977417 
	C452.243042,600.463928 453.130737,628.982605 452.072083,657.430481 
	C450.459015,700.778931 418.145081,715.742554 386.445618,712.864868 
	C383.966827,712.639893 381.514648,712.121643 378.639099,711.625732 
z"/>
<path fill="currentColor" opacity="1.000000" stroke="none" 
	d="
M846.634583,655.825317 
	C850.332275,678.636902 838.340332,698.836975 816.213196,706.973450 
	C799.213440,713.224487 781.984985,713.135376 764.772888,707.564209 
	C761.258301,706.426636 758.041565,704.696655 755.005859,702.605835 
	C747.241272,697.258118 744.878296,691.205505 747.925476,682.339050 
	C753.047546,667.435486 753.944946,665.739990 767.022644,674.303833 
	C773.505066,678.548645 780.961304,680.608826 788.667908,681.453308 
	C791.133911,681.723511 793.686218,681.782410 796.140869,681.474548 
	C804.253235,680.457214 809.950745,675.810730 810.657227,669.918274 
	C811.425171,663.512085 807.730286,658.675964 799.238831,655.567261 
	C792.365540,653.051025 785.296631,651.064209 778.446655,648.490540 
	C767.514221,644.383179 757.519470,638.749939 751.094604,628.515991 
	C737.808350,607.352539 743.436951,574.460693 774.635803,565.474915 
	C792.479675,560.335632 810.260376,561.088013 827.292847,568.939453 
	C837.605957,573.693542 840.403503,580.205200 837.760254,591.333679 
	C837.031738,594.401001 836.195374,597.476929 835.032471,600.399231 
	C832.997925,605.511780 830.423767,606.399292 825.747681,603.455811 
	C819.508545,599.528320 813.061707,596.175598 805.920410,594.182495 
	C802.479248,593.222107 799.023499,593.023804 795.529968,593.297852 
	C789.716309,593.753845 785.710449,596.970947 784.182922,602.207397 
	C782.745300,607.135559 784.436584,611.647827 789.209900,615.166748 
	C794.009949,618.705383 799.752502,620.037720 805.317017,621.724792 
	C814.244019,624.431396 823.218933,626.931091 831.021301,632.402100 
	C839.164917,638.112366 844.547607,645.584412 846.634583,655.825317 
z"/>
<path fill="currentColor" opacity="1.000000" stroke="none" 
	d="
M642.031372,603.037537 
	C645.602539,609.618774 648.993958,615.878906 652.339905,622.055115 
	C655.097961,621.463684 655.511658,619.448853 656.347107,617.956360 
	C665.050110,602.407898 673.790405,586.878235 682.262512,571.203979 
	C684.439514,567.176331 687.107056,565.478271 691.733826,565.568909 
	C704.721863,565.823364 717.718018,565.644226 730.710876,565.680786 
	C737.876709,565.700928 739.230469,567.474182 737.109253,574.049561 
	C733.277466,585.927673 729.738159,597.882751 727.103088,610.094238 
	C726.380981,613.440552 724.802856,616.248474 720.766724,615.707397 
	C716.777100,615.172607 716.672668,611.979187 716.679321,608.840088 
	C716.700439,598.852966 716.687134,588.865784 716.687134,577.295166 
	C714.117310,581.653137 712.215088,584.741272 710.444763,587.903320 
	C697.917786,610.277466 685.453613,632.686829 672.869141,655.028442 
	C671.092163,658.183167 670.221069,661.331177 670.260254,664.967468 
	C670.396729,677.625793 670.340332,690.286499 670.299622,702.946167 
	C670.279663,709.157532 669.153442,710.277588 663.048889,710.315308 
	C656.552673,710.355469 650.056030,710.325989 643.559570,710.319702 
	C634.391174,710.310852 633.838928,709.766663 633.836975,700.794250 
	C633.834351,688.967346 633.731812,677.139221 633.883545,665.314331 
	C633.934631,661.330444 632.945984,657.883728 630.981689,654.440918 
	C616.045410,628.261780 601.219727,602.019531 586.363831,575.794434 
	C585.625366,574.490845 584.740967,573.230347 584.247253,571.835632 
	C583.083740,568.548706 583.981384,565.871582 587.746887,565.787415 
	C598.068604,565.556885 608.398865,565.650574 618.725098,565.715759 
	C621.910461,565.735840 623.157043,568.332947 624.435913,570.676392 
	C630.259155,581.346558 636.049438,592.034729 642.031372,603.037537 
z"/>
<path fill="currentColor" opacity="1.000000" stroke="none" 
	d="
M554.871460,487.183899 
	C560.871948,498.327362 566.691833,509.149506 572.526489,519.998962 
	C565.026123,523.423401 559.568237,521.763672 556.080200,515.373230 
	C547.862549,500.317596 539.529480,485.323151 531.482117,470.176941 
	C524.793579,457.588287 514.827881,449.966461 500.685120,447.179871 
	C478.626068,442.833496 463.508240,430.197571 458.443054,407.803131 
	C454.608490,390.849579 458.975800,375.487335 470.653015,362.411133 
	C471.619995,361.328308 472.487396,359.990021 474.266266,359.797699 
	C476.370483,360.700745 476.505707,362.903564 477.169739,364.682831 
	C481.126556,375.285126 485.129547,385.873688 488.831665,396.565674 
	C490.242188,400.639374 492.368439,402.878510 496.882416,403.250824 
	C501.836365,403.659393 506.743958,404.729523 511.643616,405.659668 
	C514.789001,406.256744 516.674683,404.903687 518.980164,402.783417 
	C528.552246,393.980194 530.486694,385.005707 523.223145,373.313110 
	C518.315369,365.412842 514.849060,356.410126 511.550140,346.253387 
	C527.720520,347.050446 540.918396,352.370605 551.451172,363.784576 
	C564.620300,378.055481 565.051392,394.079987 557.287231,411.418671 
	C560.595703,409.856201 560.416626,411.923553 560.234009,413.777710 
	C559.793945,418.245941 559.253357,422.704163 558.767151,427.167969 
	C557.789734,436.140076 558.837158,444.791901 563.080017,452.871826 
	C573.841309,473.365173 584.653381,493.831848 595.425354,514.319580 
	C596.411255,516.194702 597.255432,518.144287 598.170898,520.070740 
	C591.472290,522.793457 588.638916,521.973022 585.652100,516.431519 
	C575.459839,497.521484 565.343323,478.570648 555.158752,459.656494 
	C554.298523,458.058929 553.392700,456.345520 552.079407,455.161377 
	C549.351501,452.701752 545.980408,452.076965 542.920105,454.285248 
	C539.940857,456.435028 539.761719,459.504272 541.541931,462.738403 
	C545.958130,470.761505 550.311951,478.818909 554.871460,487.183899 
z"/>
<path fill="currentColor" opacity="1.000000" stroke="none" 
	d="
M395.581238,486.582703 
	C401.179382,480.615143 406.804443,475.172363 412.950562,470.328430 
	C424.637177,461.117828 433.288025,448.821289 444.697876,439.343323 
	C445.847321,438.388458 446.908600,437.311371 448.131561,436.465546 
	C449.370911,435.608368 450.775208,435.710266 451.697144,436.939209 
	C452.577484,438.112732 452.655121,439.826385 451.313141,440.470306 
	C443.943787,444.006104 445.017120,451.670532 443.523590,457.581604 
	C441.425903,465.883881 438.105713,472.873108 432.574371,479.501007 
	C419.831360,494.770325 402.793365,504.913116 388.290314,518.045288 
	C382.337799,523.435120 375.962463,520.851318 369.119202,517.752136 
	C374.956818,504.751526 385.825287,496.352417 395.581238,486.582703 
z"/>
<path fill="currentColor" opacity="1.000000" stroke="none" 
	d="
M387.225342,753.034546 
	C387.224152,762.186523 387.398102,770.848938 387.128784,779.497620 
	C387.026123,782.794495 389.286346,787.982422 382.724518,787.965576 
	C376.279480,787.949036 378.972809,782.870850 378.734253,779.810730 
	C378.193573,772.876221 379.280426,765.853210 377.541992,757.380554 
	C374.424469,763.940430 371.893372,769.327026 369.301147,774.683960 
	C368.517273,776.303772 368.042267,778.376709 366.132172,778.968994 
	C362.937805,779.959473 360.378143,779.325378 358.846008,775.802429 
	C356.161133,769.629150 353.193970,763.578674 349.293335,757.722290 
	C349.293335,765.973267 349.242065,774.224670 349.319702,782.474915 
	C349.348938,785.583435 349.202515,788.104126 344.987213,788.038147 
	C340.829590,787.972900 340.675903,785.453491 340.690033,782.359375 
	C340.744019,770.539612 340.656494,758.719055 340.730225,746.899475 
	C340.743500,744.765747 339.758911,741.589905 343.215515,741.344788 
	C346.764435,741.093140 351.091583,739.271423 353.358521,744.054504 
	C355.495667,748.563721 357.447845,753.160645 359.596954,757.663879 
	C360.801758,760.188416 361.557800,762.981628 363.830353,765.296570 
	C366.871704,763.099854 367.512024,759.512268 369.035950,756.544373 
	C371.086121,752.551575 372.871521,748.418579 374.662872,744.298950 
	C375.555725,742.245605 376.908020,741.267517 379.189423,741.059631 
	C386.042145,740.435364 387.205841,741.368958 387.234497,748.044617 
	C387.240906,749.542847 387.227905,751.041260 387.225342,753.034546 
z"/>
<path fill="currentColor" opacity="1.000000" stroke="none" 
	d="
M607.380005,763.002625 
	C605.618896,765.812317 603.101562,767.176941 600.251709,768.929382 
	C603.515076,775.768677 610.087952,780.085815 613.601440,787.023987 
	C608.626404,788.650635 604.643494,788.916016 601.332153,784.425049 
	C598.475830,780.551208 595.157776,777.019714 592.087952,773.300537 
	C590.687683,771.604065 588.993469,770.632568 586.852234,771.427917 
	C584.806885,772.187744 585.376099,774.181091 585.324524,775.764343 
	C585.237854,778.422974 585.195007,781.089417 585.297729,783.746216 
	C585.409485,786.636475 584.280151,788.064453 581.258423,788.059387 
	C578.280762,788.054321 576.617798,787.156189 576.644897,783.771851 
	C576.747375,770.965698 576.745300,758.157837 576.637756,745.351746 
	C576.612305,742.321289 577.895447,741.205017 580.745667,741.098877 
	C586.580017,740.881775 592.439148,740.936279 598.158142,741.937744 
	C608.188293,743.694275 612.054810,752.529175 607.380005,763.002625 
M585.455750,761.816589 
	C589.593445,765.474060 598.168762,763.992188 600.157898,759.155762 
	C601.287415,756.409668 601.294678,753.412476 599.043030,751.265015 
	C595.753967,748.128052 591.569824,747.924072 587.412231,749.089294 
	C584.221069,749.983643 585.517212,752.880798 585.342651,755.006348 
	C585.180786,756.977600 585.340637,758.975342 585.455750,761.816589 
z"/>
<path fill="currentColor" opacity="1.000000" stroke="none" 
	d="
M312.262024,785.507080 
	C297.880707,792.213013 284.356506,786.966492 279.374390,773.066345 
	C274.596863,759.737000 281.718811,744.823486 294.569183,741.248230 
	C309.059204,737.216797 322.926117,747.619690 323.422882,762.632996 
	C323.739105,772.189209 320.726562,779.916565 312.262024,785.507080 
M286.529419,765.286194 
	C286.847565,766.916260 287.066864,768.573242 287.501373,770.171692 
	C289.161896,776.280212 293.701111,780.357727 299.269501,780.842163 
	C307.063660,781.520264 313.086700,776.876526 314.582642,769.035828 
	C316.415710,759.428040 312.194275,750.614075 304.756989,748.520935 
	C297.488800,746.475342 290.933319,749.631165 288.242737,756.750488 
	C287.316711,759.200806 287.054291,761.901917 286.529419,765.286194 
z"/>
<path fill="currentColor" opacity="1.000000" stroke="none" 
	d="
M251.679321,778.043518 
	C251.634720,767.540833 252.637589,768.345276 242.588089,768.396240 
	C229.850281,768.460876 231.551956,766.818787 231.375671,779.530579 
	C231.350266,781.363159 231.372726,783.197266 231.304199,785.028076 
	C231.197678,787.874451 229.079346,787.974060 227.023621,788.006897 
	C224.902924,788.040771 222.799835,787.747192 222.790756,784.973511 
	C222.744156,770.692871 222.769150,756.412048 222.769150,742.254944 
	C231.048309,740.609497 231.317474,740.821960 231.401779,748.371460 
	C231.561188,762.645996 229.740753,760.861023 244.403748,761.023438 
	C251.647659,761.103638 251.648911,761.042603 251.669449,753.966858 
	C251.677673,751.133972 251.794662,748.295654 251.657959,745.469727 
	C251.517120,742.558716 252.608627,741.082642 255.644653,741.152100 
	C258.453705,741.216370 260.410736,741.793274 260.376007,745.335022 
	C260.250061,758.165039 260.272797,770.997314 260.351105,783.828064 
	C260.369781,786.886719 258.998138,787.972961 256.120453,787.944519 
	C253.411057,787.917725 251.538177,787.228516 251.689514,784.018799 
	C251.775711,782.190247 251.688644,780.353638 251.679321,778.043518 
z"/>
<path fill="currentColor" opacity="1.000000" stroke="none" 
	d="
M416.134033,772.282349 
	C416.108032,780.679199 416.108032,780.677856 423.922913,780.680908 
	C426.922577,780.682129 429.922272,780.701782 432.921906,780.692566 
	C435.104980,780.685852 436.960144,781.049622 437.054779,783.819885 
	C437.143768,786.424255 436.098114,788.000732 433.328552,788.004272 
	C425.830139,788.013855 418.331757,788.001465 410.833344,787.986267 
	C408.090790,787.980713 406.982910,786.426270 406.982910,783.848938 
	C406.982910,771.017395 406.998627,758.185791 406.965973,745.354370 
	C406.958435,742.389832 408.436951,741.141785 411.274292,741.146912 
	C418.106262,741.159241 424.938324,741.146301 431.770325,741.141052 
	C434.561920,741.138916 436.136261,742.292297 436.104767,745.319092 
	C436.071228,748.540894 433.991272,748.532104 431.662628,748.482971 
	C428.164673,748.409119 424.660522,748.564209 421.165253,748.442810 
	C415.804291,748.256531 416.178925,751.881775 416.045044,755.529968 
	C415.908569,759.248230 417.008087,761.237366 421.100098,760.914795 
	C423.749420,760.705994 426.430206,760.857849 429.095825,760.906555 
	C431.609253,760.952454 434.241882,760.696350 434.324707,764.524048 
	C434.407104,768.331543 431.931458,768.280029 429.316193,768.274658 
	C426.149933,768.268188 422.982422,768.347412 419.817749,768.280396 
	C417.313446,768.227417 416.082092,769.324280 416.134033,772.282349 
z"/>
<path fill="currentColor" opacity="1.000000" stroke="none" 
	d="
M541.472412,780.646118 
	C546.089050,780.663818 550.255554,780.679260 554.421997,780.680237 
	C556.705444,780.680786 558.880676,780.770508 558.972900,783.901001 
	C559.060303,786.865234 557.606262,788.116577 554.712158,788.096313 
	C547.546326,788.046143 540.380005,788.049988 533.213928,788.072510 
	C530.084167,788.082336 528.741821,786.623535 528.759521,783.470947 
	C528.830811,770.805359 528.843079,758.138733 528.761475,745.473267 
	C528.742188,742.474243 530.071045,741.158447 532.913635,741.187073 
	C540.240417,741.260925 547.566711,741.384216 554.893433,741.468018 
	C557.035339,741.492554 557.821228,742.751404 557.893188,744.663635 
	C557.970947,746.729675 557.400085,748.320679 554.931335,748.369507 
	C550.601196,748.455200 546.270874,748.532227 541.940918,748.625000 
	C535.982056,748.752625 537.674866,753.250366 537.346191,756.631470 
	C536.971802,760.483521 539.270630,761.018372 542.332581,760.926025 
	C545.495544,760.830688 548.664673,760.949341 551.831116,760.953003 
	C554.354004,760.955933 555.979431,761.884277 556.077759,764.691589 
	C556.182678,767.689087 554.420898,768.311829 551.914917,768.271545 
	C548.582703,768.217957 545.247681,768.330627 541.916016,768.263977 
	C539.225159,768.210205 536.928406,768.920044 537.469666,772.058838 
	C537.993469,775.096680 534.749512,779.937805 541.472412,780.646118 
z"/>
<path fill="currentColor" opacity="1.000000" stroke="none" 
	d="
M769.141846,788.105347 
	C764.303528,788.574158 762.404785,787.057922 762.533691,782.251709 
	C762.850830,770.427979 762.828735,758.585938 762.555237,746.760315 
	C762.451660,742.283081 764.126587,740.870483 768.326721,741.007141 
	C774.486267,741.207642 780.656494,741.075256 786.822144,741.099792 
	C789.446228,741.110168 791.275574,741.804932 791.312195,745.047424 
	C791.352905,748.653748 789.115967,748.511108 786.654846,748.478516 
	C783.656616,748.438721 780.642700,748.713928 777.660889,748.500000 
	C772.647522,748.140381 771.037659,750.213806 771.170349,755.218750 
	C771.284729,759.532104 772.449707,761.363281 776.895264,760.950195 
	C779.867981,760.674011 782.890076,760.966064 785.888855,760.921936 
	C788.651367,760.881348 789.813538,762.220276 789.717102,764.914917 
	C789.625122,767.485229 788.236633,768.346802 785.827637,768.296204 
	C782.329895,768.222534 778.828430,768.346619 775.329590,768.301208 
	C769.982849,768.231812 771.553406,772.225281 771.348450,775.092224 
	C771.139404,778.015137 770.953430,780.931641 775.430847,780.681396 
	C779.251404,780.467834 783.096924,780.562683 786.925964,780.687622 
	C789.388245,780.767944 792.641968,779.749695 792.595520,784.166809 
	C792.549561,788.536499 789.455811,788.110657 786.620728,788.117432 
	C780.954712,788.130981 775.288513,788.111755 769.141846,788.105347 
z"/>
<path fill="currentColor" opacity="1.000000" stroke="none" 
	d="
M830.864136,741.788757 
	C837.901489,745.066589 838.194641,745.880554 834.636414,751.976318 
	C830.819397,750.747437 827.482239,747.835815 823.086792,748.136963 
	C819.974121,748.350220 816.700867,748.576660 815.907471,752.177185 
	C815.178955,755.483521 818.222229,756.645508 820.535583,757.849060 
	C824.077087,759.691589 827.822327,761.154846 831.305298,763.094788 
	C836.792419,766.150818 839.486023,771.417908 838.615234,776.691284 
	C837.662476,782.461121 833.074341,787.054749 826.910828,788.175354 
	C821.892273,789.087708 816.979431,788.594360 812.221985,786.638733 
	C805.825256,784.009216 805.468811,783.110046 808.538879,776.674927 
	C809.989014,775.970093 811.039429,777.039612 812.216492,777.545227 
	C814.049500,778.332703 815.835754,779.254639 817.717590,779.898254 
	C823.242249,781.787720 828.201355,780.907593 829.316895,777.586975 
	C831.226624,771.902222 826.403687,770.551086 822.904114,768.577271 
	C820.155823,767.027222 817.141541,765.947937 814.396729,764.392517 
	C808.837463,761.242126 806.477234,756.888000 807.301819,751.818848 
	C808.211060,746.229431 812.199280,742.128296 818.186035,740.852417 
	C822.336060,739.968079 826.460571,740.277710 830.864136,741.788757 
z"/>
<path fill="currentColor" opacity="1.000000" stroke="none" 
	d="
M510.976013,779.587158 
	C505.902954,791.154175 488.854675,790.001953 481.438843,784.445496 
	C478.213104,782.028625 480.477112,779.153931 481.826263,776.131165 
	C484.747253,777.403442 487.440918,778.587769 490.143829,779.750488 
	C492.172913,780.623413 494.314453,780.853821 496.501709,780.816406 
	C499.412476,780.766663 501.820343,779.816650 502.689697,776.791687 
	C503.559845,773.764099 502.167664,771.549866 499.528961,770.193726 
	C496.126648,768.445068 492.597504,766.944702 489.177124,765.229370 
	C481.816895,761.538330 479.208740,757.062073 480.614441,750.728455 
	C481.994812,744.509033 487.193695,740.667786 494.744598,740.393372 
	C498.104736,740.271240 501.376038,740.887451 504.543915,742.013184 
	C510.518402,744.136169 511.019440,745.492310 508.079254,751.592590 
	C506.586090,752.191956 505.582825,751.065918 504.483856,750.442139 
	C502.279785,749.191101 499.967041,748.312134 497.451294,748.003296 
	C493.918030,747.569580 490.204834,748.001221 488.965210,751.586975 
	C487.593781,755.553955 491.526794,756.824280 494.213135,758.251892 
	C497.735962,760.124207 501.575104,761.435730 504.986023,763.476685 
	C511.138641,767.158325 512.947754,772.226685 510.976013,779.587158 
z"/>
<path fill="currentColor" opacity="1.000000" stroke="none" 
	d="
M630.781494,765.112549 
	C628.167114,757.356628 625.660706,749.978271 623.153198,742.596619 
	C630.484802,740.264160 632.023865,740.979553 634.175476,747.587646 
	C637.348877,757.333862 640.442566,767.106018 644.036133,778.321106 
	C647.974182,767.086548 651.400513,757.267883 654.859070,747.460632 
	C657.181335,740.875854 657.892822,740.531311 665.058655,742.268433 
	C665.682007,743.869995 664.726807,745.200745 664.215210,746.553711 
	C659.565063,758.853333 654.735291,771.086853 650.241882,783.442932 
	C648.912048,787.099854 646.747375,788.137817 643.124023,788.126343 
	C639.627502,788.115295 638.130981,786.505188 637.142944,783.404602 
	C635.223389,777.380615 632.991882,771.455933 630.781494,765.112549 
z"/>
<path fill="currentColor" opacity="1.000000" stroke="none" 
	d="
M716.125732,769.744934 
	C717.225037,773.989868 719.201660,777.135010 722.717896,779.202759 
	C726.086914,781.183899 729.827698,781.548279 733.327332,780.398682 
	C736.849182,779.241821 740.054810,777.122131 743.607788,775.318359 
	C745.293762,780.423218 744.224792,783.973633 739.448242,786.209839 
	C731.395630,789.979553 723.516357,789.747253 716.322266,784.522278 
	C708.103027,778.552734 705.504272,769.901245 707.048523,760.227112 
	C709.557068,744.512939 724.300354,736.272217 738.280090,742.395569 
	C744.312988,745.038147 744.915344,746.237549 743.573486,754.057617 
	C735.925903,749.067322 727.919678,744.303955 719.893127,752.173096 
	C715.186096,756.787964 714.394531,762.967346 716.125732,769.744934 
z"/>
<path fill="currentColor" opacity="1.000000" stroke="none" 
	d="
M448.012390,491.012268 
	C454.749115,483.773834 461.240875,476.791595 468.551575,468.928528 
	C469.356079,475.093445 467.321045,479.197937 465.478210,483.292175 
	C463.700714,487.241272 461.254059,490.760742 458.403564,494.063141 
	C451.332336,502.255493 444.367645,510.539368 436.700500,518.191772 
	C433.063751,521.821594 428.145966,522.440369 422.444824,519.948669 
	C429.694458,509.274902 439.153564,500.639374 448.012390,491.012268 
z"/>
<path fill="currentColor" opacity="1.000000" stroke="none" 
	d="
M680.618591,753.028076 
	C680.616150,750.541931 680.612366,748.549622 680.614685,746.557251 
	C680.617737,743.890747 680.145203,741.381653 684.477478,741.346680 
	C688.811462,741.311584 689.357788,743.284485 689.323425,746.788147 
	C689.206238,758.741211 689.221130,770.696350 689.298218,782.650024 
	C689.318970,785.872986 688.867920,788.126282 684.804016,788.085999 
	C680.559082,788.043884 680.592773,785.435669 680.610413,782.410950 
	C680.666565,772.781555 680.624268,763.151550 680.618591,753.028076 
z"/>
<path fill="currentColor" opacity="1.000000" stroke="none" 
	d="
M480.993225,489.994751 
	C485.551025,484.323334 485.551025,484.323334 489.605652,484.056427 
	C487.580505,488.754852 484.526062,492.406830 481.534180,496.056793 
	C479.575378,498.446442 478.411621,500.895386 478.114258,504.100189 
	C477.513824,510.571991 471.321106,513.124817 467.908813,517.650757 
	C465.161102,521.295227 461.810699,521.730530 457.856567,521.151428 
	C456.989685,521.024597 456.282288,520.659912 455.615631,519.181030 
	C462.972076,508.940063 472.488403,500.124786 480.993225,489.994751 
z"/>
<path fill="currentColor" opacity="1.000000" stroke="none" 
	d="
M607.642822,485.337463 
	C603.644470,480.224335 599.867249,475.386841 596.142273,470.509430 
	C595.665283,469.884796 595.460266,469.052460 595.727539,467.773041 
	C608.748291,478.205780 619.380310,490.999969 631.834473,503.464294 
	C628.439331,503.761993 626.118225,503.965515 623.903931,504.159698 
	C618.491455,497.890930 613.185730,491.745850 607.642822,485.337463 
z"/>
<path fill="currentColor" opacity="1.000000" stroke="none" 
	d="
M326.189331,498.250732 
	C320.310822,507.636841 310.787140,512.798157 303.004578,521.659912 
	C303.357910,517.322449 321.827942,494.807404 324.712891,493.940643 
	C325.196869,495.259949 325.688416,496.599823 326.189331,498.250732 
z"/>
<path fill="currentColor" opacity="1.000000" stroke="none" 
	d="
M512.209473,304.941650 
	C511.683777,303.466064 511.260254,302.312531 510.836700,301.158966 
	C515.901855,304.613525 523.243042,305.816193 523.383179,315.238861 
	C519.102295,311.560974 515.134216,309.117920 512.209473,304.941650 
z"/>
</svg>